<mxfile host="app.diagrams.net" agent="Mozilla/5.0 (X11; Linux x86_64) AppleWebKit/537.36 (KHTML, like Gecko) Chrome/125.0.0.0 Safari/537.36" version="24.7.17">
  <diagram name="Page-1" id="QcFwFOKifyrVxmkoMn-t">
    <mxGraphModel dx="683" dy="374" grid="0" gridSize="10" guides="1" tooltips="1" connect="1" arrows="1" fold="1" page="1" pageScale="1" pageWidth="850" pageHeight="1100" math="0" shadow="0">
      <root>
        <mxCell id="0" />
        <mxCell id="1" parent="0" />
        <mxCell id="rNhIjqgVADMFTiBCQqSe-9" style="edgeStyle=orthogonalEdgeStyle;rounded=0;orthogonalLoop=1;jettySize=auto;html=1;exitX=0.5;exitY=1;exitDx=0;exitDy=0;entryX=0;entryY=0.5;entryDx=0;entryDy=0;" parent="1" source="rNhIjqgVADMFTiBCQqSe-2" target="rNhIjqgVADMFTiBCQqSe-4" edge="1">
          <mxGeometry relative="1" as="geometry" />
        </mxCell>
        <mxCell id="rNhIjqgVADMFTiBCQqSe-2" value="ODOMETRY" style="rounded=0;whiteSpace=wrap;html=1;" parent="1" vertex="1">
          <mxGeometry x="71" y="175" width="101" height="30" as="geometry" />
        </mxCell>
        <mxCell id="rNhIjqgVADMFTiBCQqSe-4" value="imu_translator" style="rounded=0;whiteSpace=wrap;html=1;" parent="1" vertex="1">
          <mxGeometry x="199" y="283" width="120" height="30" as="geometry" />
        </mxCell>
        <mxCell id="rNhIjqgVADMFTiBCQqSe-5" value="" style="endArrow=classic;html=1;rounded=0;entryX=0.5;entryY=0;entryDx=0;entryDy=0;" parent="1" source="rNhIjqgVADMFTiBCQqSe-7" target="rNhIjqgVADMFTiBCQqSe-4" edge="1">
          <mxGeometry width="50" height="50" relative="1" as="geometry">
            <mxPoint x="259" y="200" as="sourcePoint" />
            <mxPoint x="258.5" y="300" as="targetPoint" />
          </mxGeometry>
        </mxCell>
        <mxCell id="rNhIjqgVADMFTiBCQqSe-7" value="IMU sensor" style="rounded=0;whiteSpace=wrap;html=1;" parent="1" vertex="1">
          <mxGeometry x="217.5" y="175" width="83" height="30" as="geometry" />
        </mxCell>
        <mxCell id="rNhIjqgVADMFTiBCQqSe-10" value="&lt;span style=&quot;color: rgb(0, 0, 0); font-family: Helvetica; font-size: 12px; font-style: normal; font-variant-ligatures: normal; font-variant-caps: normal; font-weight: 400; letter-spacing: normal; orphans: 2; text-align: center; text-indent: 0px; text-transform: none; widows: 2; word-spacing: 0px; -webkit-text-stroke-width: 0px; white-space: nowrap; background-color: rgb(251, 251, 251); text-decoration-thickness: initial; text-decoration-style: initial; text-decoration-color: initial; display: inline !important; float: none;&quot;&gt;/wheel_odom&lt;/span&gt;" style="text;whiteSpace=wrap;html=1;" parent="1" vertex="1">
          <mxGeometry x="111" y="234" width="113" height="36" as="geometry" />
        </mxCell>
        <mxCell id="rNhIjqgVADMFTiBCQqSe-13" value="" style="endArrow=classic;html=1;rounded=0;exitX=0.5;exitY=1;exitDx=0;exitDy=0;" parent="1" edge="1">
          <mxGeometry width="50" height="50" relative="1" as="geometry">
            <mxPoint x="217.5" y="313" as="sourcePoint" />
            <mxPoint x="217.5" y="370" as="targetPoint" />
          </mxGeometry>
        </mxCell>
        <mxCell id="rNhIjqgVADMFTiBCQqSe-14" value="&lt;span style=&quot;color: rgb(0, 0, 0); font-family: Helvetica; font-size: 12px; font-style: normal; font-variant-ligatures: normal; font-variant-caps: normal; font-weight: 400; letter-spacing: normal; orphans: 2; text-align: center; text-indent: 0px; text-transform: none; widows: 2; word-spacing: 0px; -webkit-text-stroke-width: 0px; white-space: nowrap; background-color: rgb(251, 251, 251); text-decoration-thickness: initial; text-decoration-style: initial; text-decoration-color: initial; display: inline !important; float: none;&quot;&gt;/imu_debug&lt;/span&gt;" style="text;whiteSpace=wrap;html=1;" parent="1" vertex="1">
          <mxGeometry x="169" y="323" width="113" height="36" as="geometry" />
        </mxCell>
        <mxCell id="rNhIjqgVADMFTiBCQqSe-16" value="" style="endArrow=classic;html=1;rounded=0;exitX=0.5;exitY=1;exitDx=0;exitDy=0;entryX=0.5;entryY=0;entryDx=0;entryDy=0;" parent="1" target="rNhIjqgVADMFTiBCQqSe-18" edge="1">
          <mxGeometry width="50" height="50" relative="1" as="geometry">
            <mxPoint x="296" y="313" as="sourcePoint" />
            <mxPoint x="296" y="368" as="targetPoint" />
          </mxGeometry>
        </mxCell>
        <mxCell id="rNhIjqgVADMFTiBCQqSe-17" value="&lt;span style=&quot;color: rgb(0, 0, 0); font-family: Helvetica; font-size: 12px; font-style: normal; font-variant-ligatures: normal; font-variant-caps: normal; font-weight: 400; letter-spacing: normal; orphans: 2; text-align: center; text-indent: 0px; text-transform: none; widows: 2; word-spacing: 0px; -webkit-text-stroke-width: 0px; white-space: nowrap; background-color: rgb(251, 251, 251); text-decoration-thickness: initial; text-decoration-style: initial; text-decoration-color: initial; display: inline !important; float: none;&quot;&gt;/imu_raw&lt;/span&gt;" style="text;whiteSpace=wrap;html=1;" parent="1" vertex="1">
          <mxGeometry x="276" y="323" width="113" height="36" as="geometry" />
        </mxCell>
        <mxCell id="rNhIjqgVADMFTiBCQqSe-18" value="imu_complementary_filter" style="rounded=0;whiteSpace=wrap;html=1;" parent="1" vertex="1">
          <mxGeometry x="217.5" y="386" width="157" height="30" as="geometry" />
        </mxCell>
        <mxCell id="rNhIjqgVADMFTiBCQqSe-19" value="&lt;div style=&quot;text-align: center; text-wrap: nowrap;&quot;&gt;&lt;span style=&quot;background-color: initial;&quot;&gt;/global/imu&lt;/span&gt;&lt;br&gt;&lt;/div&gt;&lt;div style=&quot;text-align: center; text-wrap: nowrap;&quot;&gt;&lt;span style=&quot;background-color: initial;&quot;&gt;or&lt;/span&gt;&lt;/div&gt;&lt;div style=&quot;text-align: center; text-wrap: nowrap;&quot;&gt;/sensor_set/imu&lt;/div&gt;" style="text;whiteSpace=wrap;html=1;" parent="1" vertex="1">
          <mxGeometry x="261.5" y="213" width="113" height="57" as="geometry" />
        </mxCell>
        <mxCell id="rNhIjqgVADMFTiBCQqSe-20" value="" style="endArrow=classic;html=1;rounded=0;exitX=0.5;exitY=1;exitDx=0;exitDy=0;" parent="1" source="rNhIjqgVADMFTiBCQqSe-18" edge="1">
          <mxGeometry width="50" height="50" relative="1" as="geometry">
            <mxPoint x="306" y="432" as="sourcePoint" />
            <mxPoint x="296" y="482" as="targetPoint" />
          </mxGeometry>
        </mxCell>
        <mxCell id="rNhIjqgVADMFTiBCQqSe-21" value="&lt;span style=&quot;color: rgb(0, 0, 0); font-family: Helvetica; font-size: 12px; font-style: normal; font-variant-ligatures: normal; font-variant-caps: normal; font-weight: 400; letter-spacing: normal; orphans: 2; text-align: center; text-indent: 0px; text-transform: none; widows: 2; word-spacing: 0px; -webkit-text-stroke-width: 0px; white-space: nowrap; background-color: rgb(251, 251, 251); text-decoration-thickness: initial; text-decoration-style: initial; text-decoration-color: initial; display: inline !important; float: none;&quot;&gt;/imu/data&lt;/span&gt;" style="text;whiteSpace=wrap;html=1;" parent="1" vertex="1">
          <mxGeometry x="278" y="435" width="113" height="36" as="geometry" />
        </mxCell>
        <mxCell id="9kVhDNkLFDF5gvqdDcIq-2" value="LiDAR sensor" style="rounded=0;whiteSpace=wrap;html=1;" vertex="1" parent="1">
          <mxGeometry x="209" y="644" width="101" height="30" as="geometry" />
        </mxCell>
        <mxCell id="9kVhDNkLFDF5gvqdDcIq-3" value="scan_post_filter" style="rounded=0;whiteSpace=wrap;html=1;verticalAlign=top;" vertex="1" parent="1">
          <mxGeometry x="222" y="719" width="215" height="112" as="geometry" />
        </mxCell>
        <mxCell id="9kVhDNkLFDF5gvqdDcIq-5" value="IMU sensor" style="rounded=0;whiteSpace=wrap;html=1;" vertex="1" parent="1">
          <mxGeometry x="522" y="590" width="83" height="30" as="geometry" />
        </mxCell>
        <mxCell id="9kVhDNkLFDF5gvqdDcIq-7" value="" style="endArrow=classic;html=1;rounded=0;exitX=0.5;exitY=1;exitDx=0;exitDy=0;" edge="1" parent="1">
          <mxGeometry width="50" height="50" relative="1" as="geometry">
            <mxPoint x="601.5" y="985" as="sourcePoint" />
            <mxPoint x="601.5" y="1042" as="targetPoint" />
          </mxGeometry>
        </mxCell>
        <mxCell id="9kVhDNkLFDF5gvqdDcIq-8" value="&lt;span style=&quot;color: rgb(0, 0, 0); font-family: Helvetica; font-size: 12px; font-style: normal; font-variant-ligatures: normal; font-variant-caps: normal; font-weight: 400; letter-spacing: normal; orphans: 2; text-align: center; text-indent: 0px; text-transform: none; widows: 2; word-spacing: 0px; -webkit-text-stroke-width: 0px; white-space: nowrap; background-color: rgb(251, 251, 251); text-decoration-thickness: initial; text-decoration-style: initial; text-decoration-color: initial; display: inline !important; float: none;&quot;&gt;/imu_debug&lt;/span&gt;" style="text;whiteSpace=wrap;html=1;" vertex="1" parent="1">
          <mxGeometry x="553" y="995" width="113" height="36" as="geometry" />
        </mxCell>
        <mxCell id="9kVhDNkLFDF5gvqdDcIq-9" value="" style="endArrow=classic;html=1;rounded=0;exitX=0.5;exitY=1;exitDx=0;exitDy=0;entryX=0.5;entryY=0;entryDx=0;entryDy=0;" edge="1" target="9kVhDNkLFDF5gvqdDcIq-11" parent="1">
          <mxGeometry width="50" height="50" relative="1" as="geometry">
            <mxPoint x="680" y="985" as="sourcePoint" />
            <mxPoint x="680" y="1040" as="targetPoint" />
          </mxGeometry>
        </mxCell>
        <mxCell id="9kVhDNkLFDF5gvqdDcIq-10" value="&lt;span style=&quot;color: rgb(0, 0, 0); font-family: Helvetica; font-size: 12px; font-style: normal; font-variant-ligatures: normal; font-variant-caps: normal; font-weight: 400; letter-spacing: normal; orphans: 2; text-align: center; text-indent: 0px; text-transform: none; widows: 2; word-spacing: 0px; -webkit-text-stroke-width: 0px; white-space: nowrap; background-color: rgb(251, 251, 251); text-decoration-thickness: initial; text-decoration-style: initial; text-decoration-color: initial; display: inline !important; float: none;&quot;&gt;/imu_raw&lt;/span&gt;" style="text;whiteSpace=wrap;html=1;" vertex="1" parent="1">
          <mxGeometry x="660" y="995" width="113" height="36" as="geometry" />
        </mxCell>
        <mxCell id="9kVhDNkLFDF5gvqdDcIq-11" value="imu_complementary_filter" style="rounded=0;whiteSpace=wrap;html=1;" vertex="1" parent="1">
          <mxGeometry x="601.5" y="1058" width="157" height="30" as="geometry" />
        </mxCell>
        <mxCell id="9kVhDNkLFDF5gvqdDcIq-12" value="&lt;div style=&quot;text-align: center; text-wrap: nowrap;&quot;&gt;&lt;span style=&quot;background-color: initial;&quot;&gt;/global/imu&lt;/span&gt;&lt;br&gt;&lt;/div&gt;&lt;div style=&quot;text-align: center; text-wrap: nowrap;&quot;&gt;&lt;span style=&quot;background-color: initial;&quot;&gt;or&lt;/span&gt;&lt;/div&gt;&lt;div style=&quot;text-align: center; text-wrap: nowrap;&quot;&gt;/sensor_set/imu&lt;/div&gt;" style="text;whiteSpace=wrap;html=1;" vertex="1" parent="1">
          <mxGeometry x="513" y="649" width="113" height="57" as="geometry" />
        </mxCell>
        <mxCell id="9kVhDNkLFDF5gvqdDcIq-13" value="" style="endArrow=classic;html=1;rounded=0;exitX=0.5;exitY=1;exitDx=0;exitDy=0;" edge="1" source="9kVhDNkLFDF5gvqdDcIq-11" parent="1">
          <mxGeometry width="50" height="50" relative="1" as="geometry">
            <mxPoint x="690" y="1104" as="sourcePoint" />
            <mxPoint x="680" y="1154" as="targetPoint" />
          </mxGeometry>
        </mxCell>
        <mxCell id="9kVhDNkLFDF5gvqdDcIq-14" value="&lt;span style=&quot;color: rgb(0, 0, 0); font-family: Helvetica; font-size: 12px; font-style: normal; font-variant-ligatures: normal; font-variant-caps: normal; font-weight: 400; letter-spacing: normal; orphans: 2; text-align: center; text-indent: 0px; text-transform: none; widows: 2; word-spacing: 0px; -webkit-text-stroke-width: 0px; white-space: nowrap; background-color: rgb(251, 251, 251); text-decoration-thickness: initial; text-decoration-style: initial; text-decoration-color: initial; display: inline !important; float: none;&quot;&gt;/imu/data&lt;/span&gt;" style="text;whiteSpace=wrap;html=1;" vertex="1" parent="1">
          <mxGeometry x="662" y="1107" width="113" height="36" as="geometry" />
        </mxCell>
        <mxCell id="9kVhDNkLFDF5gvqdDcIq-18" style="edgeStyle=orthogonalEdgeStyle;rounded=0;orthogonalLoop=1;jettySize=auto;html=1;exitX=0.5;exitY=1;exitDx=0;exitDy=0;entryX=0.196;entryY=0.983;entryDx=0;entryDy=0;entryPerimeter=0;" edge="1" parent="1" source="9kVhDNkLFDF5gvqdDcIq-15" target="9kVhDNkLFDF5gvqdDcIq-16">
          <mxGeometry relative="1" as="geometry">
            <mxPoint x="259.2758620689656" y="864.8965517241379" as="targetPoint" />
            <Array as="points">
              <mxPoint x="260" y="826" />
              <mxPoint x="313" y="826" />
              <mxPoint x="313" y="793" />
            </Array>
          </mxGeometry>
        </mxCell>
        <mxCell id="9kVhDNkLFDF5gvqdDcIq-15" value="ghost filter" style="rounded=0;whiteSpace=wrap;html=1;" vertex="1" parent="1">
          <mxGeometry x="233" y="746" width="53" height="48" as="geometry" />
        </mxCell>
        <mxCell id="9kVhDNkLFDF5gvqdDcIq-16" value="footprint filter" style="rounded=0;whiteSpace=wrap;html=1;" vertex="1" parent="1">
          <mxGeometry x="302" y="746" width="53" height="48" as="geometry" />
        </mxCell>
        <mxCell id="9kVhDNkLFDF5gvqdDcIq-30" style="edgeStyle=orthogonalEdgeStyle;rounded=0;orthogonalLoop=1;jettySize=auto;html=1;exitX=0.75;exitY=1;exitDx=0;exitDy=0;" edge="1" parent="1" source="9kVhDNkLFDF5gvqdDcIq-17" target="9kVhDNkLFDF5gvqdDcIq-29">
          <mxGeometry relative="1" as="geometry" />
        </mxCell>
        <mxCell id="9kVhDNkLFDF5gvqdDcIq-17" value="&lt;span style=&quot;color: rgb(0, 0, 0); font-family: Helvetica; font-size: 12px; font-style: normal; font-variant-ligatures: normal; font-variant-caps: normal; font-weight: 400; letter-spacing: normal; orphans: 2; text-align: center; text-indent: 0px; text-transform: none; widows: 2; word-spacing: 0px; -webkit-text-stroke-width: 0px; white-space: normal; background-color: rgb(251, 251, 251); text-decoration-thickness: initial; text-decoration-style: initial; text-decoration-color: initial; display: inline !important; float: none;&quot;&gt;hi intensity filter&lt;/span&gt;" style="rounded=0;whiteSpace=wrap;html=1;" vertex="1" parent="1">
          <mxGeometry x="372" y="746" width="53" height="48" as="geometry" />
        </mxCell>
        <mxCell id="9kVhDNkLFDF5gvqdDcIq-19" value="&lt;span style=&quot;color: rgb(0, 0, 0); font-family: Helvetica; font-size: 12px; font-style: normal; font-variant-ligatures: normal; font-variant-caps: normal; font-weight: 400; letter-spacing: normal; orphans: 2; text-align: center; text-indent: 0px; text-transform: none; widows: 2; word-spacing: 0px; -webkit-text-stroke-width: 0px; white-space: nowrap; background-color: rgb(251, 251, 251); text-decoration-thickness: initial; text-decoration-style: initial; text-decoration-color: initial; display: inline !important; float: none;&quot;&gt;/scan_ghost&lt;/span&gt;" style="text;whiteSpace=wrap;html=1;" vertex="1" parent="1">
          <mxGeometry x="226" y="798" width="77" height="21" as="geometry" />
        </mxCell>
        <mxCell id="9kVhDNkLFDF5gvqdDcIq-21" value="&lt;span style=&quot;color: rgb(0, 0, 0); font-family: Helvetica; font-size: 12px; font-style: normal; font-variant-ligatures: normal; font-variant-caps: normal; font-weight: 400; letter-spacing: normal; orphans: 2; text-align: center; text-indent: 0px; text-transform: none; widows: 2; word-spacing: 0px; -webkit-text-stroke-width: 0px; white-space: nowrap; background-color: rgb(251, 251, 251); text-decoration-thickness: initial; text-decoration-style: initial; text-decoration-color: initial; display: inline !important; float: none;&quot;&gt;/scan_hi_intensity&lt;/span&gt;" style="text;whiteSpace=wrap;html=1;" vertex="1" parent="1">
          <mxGeometry x="339" y="838" width="113" height="36" as="geometry" />
        </mxCell>
        <mxCell id="9kVhDNkLFDF5gvqdDcIq-1" style="edgeStyle=orthogonalEdgeStyle;rounded=0;orthogonalLoop=1;jettySize=auto;html=1;exitX=0.5;exitY=1;exitDx=0;exitDy=0;entryX=0.5;entryY=0;entryDx=0;entryDy=0;" edge="1" source="9kVhDNkLFDF5gvqdDcIq-2" target="9kVhDNkLFDF5gvqdDcIq-15" parent="1">
          <mxGeometry relative="1" as="geometry" />
        </mxCell>
        <mxCell id="9kVhDNkLFDF5gvqdDcIq-28" style="edgeStyle=orthogonalEdgeStyle;rounded=0;orthogonalLoop=1;jettySize=auto;html=1;exitX=0.75;exitY=1;exitDx=0;exitDy=0;entryX=0.5;entryY=1;entryDx=0;entryDy=0;" edge="1" parent="1" source="9kVhDNkLFDF5gvqdDcIq-16" target="9kVhDNkLFDF5gvqdDcIq-17">
          <mxGeometry relative="1" as="geometry">
            <mxPoint x="379" y="825" as="targetPoint" />
            <mxPoint x="327" y="826" as="sourcePoint" />
            <Array as="points">
              <mxPoint x="342" y="825" />
              <mxPoint x="399" y="825" />
            </Array>
          </mxGeometry>
        </mxCell>
        <mxCell id="9kVhDNkLFDF5gvqdDcIq-23" value="&lt;span style=&quot;color: rgb(0, 0, 0); font-family: Helvetica; font-size: 12px; font-style: normal; font-variant-ligatures: normal; font-variant-caps: normal; font-weight: 400; letter-spacing: normal; orphans: 2; text-align: center; text-indent: 0px; text-transform: none; widows: 2; word-spacing: 0px; -webkit-text-stroke-width: 0px; white-space: nowrap; background-color: rgb(251, 251, 251); text-decoration-thickness: initial; text-decoration-style: initial; text-decoration-color: initial; display: inline !important; float: none;&quot;&gt;/scan&lt;/span&gt;" style="text;whiteSpace=wrap;html=1;" vertex="1" parent="1">
          <mxGeometry x="329" y="798" width="34" height="26" as="geometry" />
        </mxCell>
        <mxCell id="9kVhDNkLFDF5gvqdDcIq-6" value="&lt;span style=&quot;color: rgb(0, 0, 0); font-family: Helvetica; font-size: 12px; font-style: normal; font-variant-ligatures: normal; font-variant-caps: normal; font-weight: 400; letter-spacing: normal; orphans: 2; text-align: center; text-indent: 0px; text-transform: none; widows: 2; word-spacing: 0px; -webkit-text-stroke-width: 0px; white-space: nowrap; background-color: rgb(251, 251, 251); text-decoration-thickness: initial; text-decoration-style: initial; text-decoration-color: initial; display: inline !important; float: none;&quot;&gt;/unmasked_scan&lt;/span&gt;" style="text;whiteSpace=wrap;html=1;" vertex="1" parent="1">
          <mxGeometry x="213" y="683" width="113" height="36" as="geometry" />
        </mxCell>
        <mxCell id="9kVhDNkLFDF5gvqdDcIq-29" value="AMCL&lt;div&gt;(if scan_hi feature is in use)&lt;/div&gt;" style="rounded=0;whiteSpace=wrap;html=1;" vertex="1" parent="1">
          <mxGeometry x="363" y="879" width="99" height="53" as="geometry" />
        </mxCell>
      </root>
    </mxGraphModel>
  </diagram>
</mxfile>
